<svg width="510" height="511" viewBox="0 0 510 511" fill="none" xmlns="http://www.w3.org/2000/svg">
<rect width="510" height="510.501" rx="255" fill="white"/>
<path d="M133.065 359.75V242.81L164.725 226.47L204.045 244.85V352.09L198.365 365.24L198.435 246.39L166.435 231.75L165.755 363.49L133.065 361.54V359.75Z" fill="#C9A961"/>
<path d="M178.585 232.95V175.24L219.195 153.45L261.415 178.98V188.17L219.995 165.02V328.09L204.045 352.09V244.85L178.585 232.95Z" fill="#C9A961"/>
<path d="M227.795 188.05L254.985 203.11V207.96L227.795 193.54V188.05Z" fill="#C9A961"/>
<path d="M227.795 204.9L254.985 219.58V225.32L227.795 210.9V204.9Z" fill="#C9A961"/>
<path d="M254.985 237.83L227.795 223.66V229.54L254.985 243.2V237.83Z" fill="#C9A961"/>
<path d="M227.795 238.85L254.985 252.77V257.62L227.795 243.83V238.85Z" fill="#C9A961"/>
<path d="M227.795 259.41L251.535 271.66V276.26L227.795 264.51V259.41Z" fill="#C9A961"/>
<path d="M261.415 251.24V178.98L239.665 165.83V156.51L268.645 172.6V238.85L262.775 251.24H261.415Z" fill="#B2975C"/>
<path d="M239.665 156.51V121.79L278.435 100V225.32L268.645 238.85V172.6L239.665 156.51Z" fill="#C9A961"/>
<path d="M278.435 100L316.215 122.81V162.3L311.915 167.11L311.795 132.64L305.155 129.45V179.49L301.065 184.22L300.685 126.51L293.665 122.56L293.795 198L289.705 204.9L289.455 120.13L278.435 113.75V225.32" fill="#C9A961"/>
<path d="M209.155 362.81L222.685 338.81H278.095L265.835 362.81H209.155Z" fill="#C9A961"/>
<path d="M236.215 314.56H291.625L282.175 332.43H226.515L236.215 314.56Z" fill="#C9A961"/>
<path d="M254.155 285.96H381.235L300.305 308.68H239.665L254.155 285.96Z" fill="#C9A961"/>
<path d="M256.895 280.09H307.195L342.435 219.07L402.945 321.71L438.175 297.32L342.435 130.73L256.895 280.09Z" fill="#C9A961"/>
<path d="M115.195 281.24C115.195 281.24 86.7252 298.77 82.2652 315.96C82.2652 315.96 76.1352 332.43 86.0952 343.41C94.9714 353.764 106.48 361.528 119.405 365.88C119.405 365.88 129.235 371.62 165.115 376.09C165.115 376.09 199.965 381.96 265.325 374.09C265.325 374.09 294.435 372.55 336.555 358.77C336.555 358.77 372.045 349.58 398.855 334.51C398.855 334.51 428.985 318.43 446.605 301.58C446.605 301.58 459.365 289.58 460.895 286C462.425 282.42 459.365 289.58 459.365 289.58C459.365 289.58 449.835 303.58 421.755 327.28C421.755 327.28 397.405 347.7 353.495 368.28C353.495 368.28 331.875 380.19 278.435 395.28C278.435 395.28 256.435 404.21 204.045 409.28C204.045 409.28 151.965 412.34 119.045 408.77L111.135 408L121.575 406.77C121.575 406.77 167.795 409.06 236.725 392.21C236.725 392.21 194.095 402.94 106.775 389.66C106.775 389.66 71.7752 384.55 52.6452 358C52.6452 358 40.1352 342.43 59.5352 317.92C59.5352 317.88 86.3452 292.34 115.195 281.24Z" fill="#C9A961"/>
</svg>
