<svg width="882" height="311" viewBox="0 0 882 311" fill="none" xmlns="http://www.w3.org/2000/svg">
<path d="M84.3887 259.75V142.81L116.049 126.47L155.369 144.85V252.09L149.689 265.24L149.759 146.39L117.759 131.75L117.079 263.49L84.3887 261.54V259.75Z" fill="#D4AF37"/>
<path d="M129.909 132.95V75.24L170.519 53.45L212.739 78.9799V88.17L171.319 65.02V228.09L155.369 252.09V144.85L129.909 132.95Z" fill="#D4AF37"/>
<path d="M179.119 88.05L206.309 103.11V107.96L179.119 93.54V88.05Z" fill="#D4AF37"/>
<path d="M179.119 104.9L206.309 119.58V125.32L179.119 110.9V104.9Z" fill="#D4AF37"/>
<path d="M206.309 137.83L179.119 123.66V129.54L206.309 143.2V137.83Z" fill="#D4AF37"/>
<path d="M179.119 138.85L206.309 152.77V157.62L179.119 143.83V138.85Z" fill="#D4AF37"/>
<path d="M179.119 159.41L202.859 171.66V176.26L179.119 164.51V159.41Z" fill="#D4AF37"/>
<path d="M212.739 151.24V78.98L190.989 65.83V56.51L219.969 72.6V138.85L214.099 151.24H212.739Z" fill="#B79937"/>
<path d="M190.989 56.51V21.79L229.759 0V125.32L219.969 138.85V72.6L190.989 56.51Z" fill="#D4AF37"/>
<path d="M229.759 0L267.539 22.81V62.3L263.239 67.11L263.119 32.64L256.479 29.45V79.49L252.389 84.22L252.009 26.51L244.989 22.56L245.119 98L241.029 104.9L240.779 20.13L229.759 13.75V125.32" fill="#D4AF37"/>
<path d="M160.479 262.81L174.009 238.81H229.419L217.159 262.81H160.479Z" fill="#D4AF37"/>
<path d="M187.539 214.56H242.949L233.499 232.43H177.839L187.539 214.56Z" fill="#D4AF37"/>
<path d="M205.479 185.96H332.559L251.629 208.68H190.989L205.479 185.96Z" fill="#D4AF37"/>
<path d="M208.219 180.09H258.519L293.759 119.07L354.269 221.71L389.499 197.32L293.759 30.73L208.219 180.09Z" fill="#D4AF37"/>
<path d="M66.5189 181.24C66.5189 181.24 38.0489 198.77 33.5889 215.96C33.5889 215.96 27.4589 232.43 37.4189 243.41C46.2952 253.764 57.804 261.528 70.7289 265.88C70.7289 265.88 80.5589 271.62 116.439 276.09C116.439 276.09 151.289 281.96 216.649 274.09C216.649 274.09 245.759 272.55 287.879 258.77C287.879 258.77 323.369 249.58 350.179 234.51C350.179 234.51 380.309 218.43 397.929 201.58C397.929 201.58 410.689 189.58 412.219 186C413.749 182.42 410.689 189.58 410.689 189.58C410.689 189.58 401.159 203.58 373.079 227.28C373.079 227.28 348.729 247.7 304.819 268.28C304.819 268.28 283.199 280.19 229.759 295.28C229.759 295.28 207.759 304.21 155.369 309.28C155.369 309.28 103.289 312.34 70.3689 308.77L62.4589 308L72.8989 306.77C72.8989 306.77 119.119 309.06 188.049 292.21C188.049 292.21 145.419 302.94 58.0989 289.66C58.0989 289.66 23.0989 284.55 3.96894 258C3.96894 258 -8.54106 242.43 10.8589 217.92C10.8589 217.88 37.6689 192.34 66.5189 181.24Z" fill="#D4AF37"/>
<path d="M501.64 140.32H470.6L463.08 168H437.8L470.76 60.16H502.6L536.2 168H509.96L501.64 140.32ZM474.12 122.08H497.96L491.24 99.2C489.48 92.8 487.56 84.64 485.96 78.4H485.48C484.04 84.8 482.28 92.96 480.68 99.2L474.12 122.08ZM556.215 60.16H580.535V122.08C580.535 140.8 587.735 150.24 600.055 150.24C612.855 150.24 619.895 141.28 619.895 122.08V60.16H644.215V120.64C644.215 153.92 627.415 169.76 599.255 169.76C572.055 169.76 556.215 154.56 556.215 120.32V60.16ZM676.478 168V61.76C684.318 60.32 695.838 59.36 708.958 59.36C724.958 59.36 736.158 61.76 743.838 68C750.398 73.12 753.918 80.64 753.918 90.56C753.918 104.16 744.158 113.6 734.878 116.96V117.44C742.398 120.48 746.558 127.52 749.278 137.44C752.638 149.76 755.838 163.84 757.918 168H732.958C731.358 164.8 728.638 156.16 725.598 142.88C722.558 129.28 717.918 125.76 707.838 125.6H700.638V168H676.478ZM700.638 78.4V108H710.238C722.398 108 729.598 101.92 729.598 92.48C729.598 82.72 722.878 77.6 711.678 77.6C705.758 77.6 702.398 77.92 700.638 78.4ZM839.928 140.32H808.888L801.368 168H776.088L809.048 60.16H840.888L874.488 168H848.248L839.928 140.32ZM812.408 122.08H836.248L829.528 99.2C827.768 92.8 825.848 84.64 824.248 78.4H823.768C822.328 84.8 820.568 92.96 818.968 99.2L812.408 122.08Z" fill="#F5F5F0"/>
<path d="M507.22 236.209V196.309C510.22 195.829 514.54 195.409 520.96 195.409C526.9 195.409 531.04 196.669 533.8 198.709C536.44 200.689 538.36 204.049 538.36 208.249C538.36 212.089 537.1 215.569 534.58 217.729C531.22 220.789 526.36 222.169 520.3 222.169C518.92 222.169 517.6 222.049 516.7 221.869V236.209H507.22ZM516.7 202.849V214.609C517.6 214.849 518.68 214.909 520.3 214.909C525.46 214.909 528.88 212.569 528.88 208.369C528.88 204.589 525.94 202.549 521.02 202.549C518.86 202.549 517.42 202.669 516.7 202.849ZM544.544 236.209V196.309C547.664 195.829 552.404 195.409 557.924 195.409C564.464 195.409 568.784 196.429 571.784 198.649C574.184 200.449 575.684 203.389 575.684 207.169C575.684 212.569 571.484 216.049 568.244 217.069V217.309C571.064 218.449 572.684 221.149 573.824 224.629C575.204 229.249 576.464 234.589 577.304 236.209H567.524C566.864 235.009 565.844 232.069 564.524 226.849C563.264 221.809 561.404 220.489 557.264 220.429H554.024V236.209H544.544ZM554.024 202.729V213.649H558.344C563.264 213.649 566.204 211.489 566.204 207.949C566.204 204.169 563.264 202.429 558.884 202.429C556.184 202.429 554.744 202.609 554.024 202.729ZM601.54 236.929H601.48C588.52 236.929 580.36 228.049 580.36 216.409C580.36 203.989 589.24 195.049 602.14 195.049C615.46 195.049 623.56 203.869 623.56 215.689C623.56 228.289 614.68 236.929 601.54 236.929ZM601.9 229.489H601.96C609.1 229.489 613.42 223.729 613.42 215.989C613.42 208.669 609.16 202.489 601.96 202.489C594.76 202.489 590.5 208.549 590.5 216.109C590.5 223.609 594.94 229.489 601.9 229.489ZM629.974 236.209V196.309C632.974 195.829 637.294 195.409 643.714 195.409C649.654 195.409 653.794 196.669 656.554 198.709C659.194 200.689 661.114 204.049 661.114 208.249C661.114 212.089 659.854 215.569 657.334 217.729C653.974 220.789 649.114 222.169 643.054 222.169C641.674 222.169 640.354 222.049 639.454 221.869V236.209H629.974ZM639.454 202.849V214.609C640.354 214.849 641.434 214.909 643.054 214.909C648.214 214.909 651.634 212.569 651.634 208.369C651.634 204.589 648.694 202.549 643.774 202.549C641.614 202.549 640.174 202.669 639.454 202.849ZM693.578 211.609V219.349H676.838V228.469H695.558V236.209H667.298V195.769H694.598V203.509H676.838V211.609H693.578ZM702.103 236.209V196.309C705.223 195.829 709.963 195.409 715.483 195.409C722.023 195.409 726.343 196.429 729.343 198.649C731.743 200.449 733.243 203.389 733.243 207.169C733.243 212.569 729.043 216.049 725.803 217.069V217.309C728.623 218.449 730.243 221.149 731.383 224.629C732.763 229.249 734.023 234.589 734.863 236.209H725.083C724.423 235.009 723.403 232.069 722.083 226.849C720.823 221.809 718.963 220.489 714.823 220.429H711.583V236.209H702.103ZM711.583 202.729V213.649H715.903C720.823 213.649 723.763 211.489 723.763 207.949C723.763 204.169 720.823 202.429 716.443 202.429C713.743 202.429 712.303 202.609 711.583 202.729ZM749.13 236.209V203.569H736.95V195.769H771.03V203.569H758.67V236.209H749.13ZM796.508 236.209H786.968V219.289L772.928 195.769H784.088L788.648 205.549C790.028 208.549 790.988 210.409 792.068 212.989H792.188C793.208 210.589 794.288 208.429 795.608 205.609L800.228 195.769H811.268L796.508 218.929V236.209Z" fill="#F5F5F0"/>
</svg>
